<?xml version="1.0" standalone="no"?>
<!DOCTYPE svg PUBLIC "-//W3C//DTD SVG 20010904//EN"
 "http://www.w3.org/TR/2001/REC-SVG-20010904/DTD/svg10.dtd">
<svg version="1.0" xmlns="http://www.w3.org/2000/svg"
 width="700.000000pt" height="700.000000pt" viewBox="0 0 700.000000 700.000000"
 preserveAspectRatio="xMidYMid meet">
<metadata>
Created by potrace 1.14, written by Peter Selinger 2001-2017
</metadata>
<g transform="translate(0.000000,700.000000) scale(0.100000,-0.100000)"
fill="#000000" stroke="none">
<path d="M3097 6004 c-3 -3 -42 -8 -88 -10 -104 -5 -140 -15 -187 -52 -36 -29
-60 -67 -81 -124 -7 -18 -26 -35 -55 -48 -41 -20 -102 -78 -221 -215 -27 -32
-57 -64 -65 -71 -84 -75 -180 -176 -197 -205 -11 -20 -29 -47 -39 -60 -25 -31
-148 -152 -213 -209 -29 -25 -78 -81 -109 -125 -104 -147 -227 -260 -352 -325
-14 -7 -37 -23 -53 -36 -15 -13 -67 -43 -115 -67 -48 -24 -105 -56 -126 -70
-21 -15 -44 -27 -51 -27 -12 0 -68 -56 -76 -77 -2 -4 -21 -20 -41 -35 -20 -16
-40 -38 -43 -50 -4 -13 -24 -45 -45 -73 -21 -27 -41 -61 -45 -75 -4 -14 -15
-36 -25 -50 -37 -56 -107 -281 -130 -420 -17 -101 -18 -109 -23 -118 -8 -12
-20 -123 -21 -192 -1 -67 10 -138 25 -154 5 -6 9 -17 9 -26 0 -8 11 -32 24
-51 14 -20 28 -47 31 -61 3 -13 23 -37 43 -54 20 -16 52 -46 71 -67 32 -34
107 -76 246 -136 28 -12 59 -27 70 -33 37 -21 290 -151 340 -175 28 -13 57
-27 65 -32 8 -4 51 -27 94 -51 43 -23 97 -55 119 -71 22 -16 44 -29 49 -29 6
0 47 -18 91 -39 143 -69 219 -101 236 -101 9 0 34 -9 56 -20 22 -11 47 -20 57
-20 9 0 19 -4 23 -9 3 -5 22 -15 43 -21 44 -13 46 -14 182 -78 59 -27 120 -53
138 -56 17 -4 68 -23 114 -43 46 -19 108 -43 138 -52 30 -10 93 -36 140 -59
47 -23 114 -50 149 -62 35 -11 78 -28 95 -39 17 -10 54 -26 81 -36 28 -10 91
-37 140 -61 50 -24 97 -44 105 -45 8 0 33 -11 55 -24 22 -13 60 -33 85 -45 25
-11 53 -24 62 -30 10 -5 24 -10 32 -10 14 0 94 -31 181 -69 22 -10 56 -22 75
-26 19 -4 62 -18 95 -32 290 -121 375 -152 560 -208 61 -18 128 -40 150 -48
22 -8 63 -17 90 -20 28 -3 79 -13 115 -22 35 -9 83 -18 105 -21 22 -2 51 -6
65 -10 43 -10 139 -16 310 -18 141 -3 174 0 230 17 36 11 70 23 75 27 6 5 28
13 50 19 45 12 195 150 230 210 11 19 26 45 33 57 24 43 29 122 27 419 l-3
300 -41 115 c-23 63 -44 131 -47 150 -5 31 -42 120 -78 190 -7 14 -16 37 -20
53 -6 26 -86 139 -107 152 -5 4 -9 14 -9 24 0 10 -28 62 -62 114 -35 53 -79
122 -98 154 -46 76 -170 240 -209 277 -17 17 -31 35 -31 41 0 6 -17 27 -37 48
-21 20 -67 73 -103 118 -36 45 -80 96 -97 114 -18 17 -50 55 -70 83 -72 99
-166 217 -184 230 -10 6 -22 27 -29 46 -6 18 -29 50 -50 70 -22 20 -40 42 -40
49 0 7 -16 27 -35 46 -19 18 -35 39 -35 47 0 7 -9 19 -20 26 -11 7 -20 18 -20
23 0 6 -25 40 -55 77 -30 36 -55 69 -55 73 0 4 -20 28 -45 53 -25 25 -45 50
-45 56 0 5 -24 35 -54 65 -87 89 -234 253 -403 450 -102 119 -179 198 -279
291 -33 30 -109 102 -170 160 -60 58 -139 130 -174 160 -35 30 -116 104 -179
164 -181 170 -184 173 -223 185 -21 7 -40 17 -43 22 -9 13 -42 29 -48 23z
m3045 -4571 c-8 -44 -42 -75 -42 -38 0 8 -5 15 -12 15 -9 0 40 42 58 50 1 0
-1 -12 -4 -27z"/>
</g>
</svg>
